<?xml version="1.0" encoding="UTF-8" standalone="no"?>
<svg
   xmlns:dc="http://purl.org/dc/elements/1.1/"
   xmlns:cc="http://creativecommons.org/ns#"
   xmlns:rdf="http://www.w3.org/1999/02/22-rdf-syntax-ns#"
   xmlns:svg="http://www.w3.org/2000/svg"
   xmlns="http://www.w3.org/2000/svg"
   xmlns:xlink="http://www.w3.org/1999/xlink"
   xmlns:sodipodi="http://sodipodi.sourceforge.net/DTD/sodipodi-0.dtd"
   xmlns:inkscape="http://www.inkscape.org/namespaces/inkscape"
   version="1.1"
   id="Layer_2"
   x="0px"
   y="0px"
   viewBox="0 0 134 38"
   style="enable-background:new 0 0 134 38;"
   xml:space="preserve"
   sodipodi:docname="logo.svg"
   inkscape:version="1.0.2-2 (e86c870879, 2021-01-15)"><metadata
   id="metadata57"><rdf:RDF><cc:Work
       rdf:about=""><dc:format>image/svg+xml</dc:format><dc:type
         rdf:resource="http://purl.org/dc/dcmitype/StillImage" /></cc:Work></rdf:RDF></metadata><defs
   id="defs55"><linearGradient
     id="SVGID_5_"
     gradientUnits="userSpaceOnUse"
     x1="-0.068800002"
     y1="394.20309"
     x2="1.6152"
     y2="394.20309"
     gradientTransform="matrix(102.6416,0,0,-102.6416,16.4199,40557.129)"><stop
       offset="0"
       style="stop-color:#99C45A"
       id="stop129" /><stop
       offset="0.1413"
       style="stop-color:#99C45A"
       id="stop131" /><stop
       offset="1"
       style="stop-color:#99C45A"
       id="stop133" /></linearGradient><clipPath
     id="SVGID_2_"><use
       xlink:href="#SVGID_1_"
       overflow="visible"
       id="use91"
       x="0"
       y="0"
       width="100%"
       height="100%" /></clipPath><mask
     maskUnits="userSpaceOnUse"
     x="9.405"
     y="92.938"
     width="172.816"
     height="5.265"
     id="SVGID_3_"><g
       filter="url(#Adobe_OpacityMaskFilter)"
       id="g126"><linearGradient
         id="SVGID_4_"
         gradientUnits="userSpaceOnUse"
         x1="-0.068800002"
         y1="394.20309"
         x2="1.6152"
         y2="394.20309"
         gradientTransform="matrix(102.6416,0,0,-102.6416,16.4199,40557.129)"><stop
           offset="0"
           style="stop-color:#000000"
           id="stop99" /><stop
           offset="0.0074"
           style="stop-color:#090909"
           id="stop101" /><stop
           offset="0.0477"
           style="stop-color:#373737"
           id="stop103" /><stop
           offset="0.0931"
           style="stop-color:#626262"
           id="stop105" /><stop
           offset="0.1419"
           style="stop-color:#888888"
           id="stop107" /><stop
           offset="0.195"
           style="stop-color:#A8A8A8"
           id="stop109" /><stop
           offset="0.2537"
           style="stop-color:#C4C4C4"
           id="stop111" /><stop
           offset="0.32"
           style="stop-color:#DADADA"
           id="stop113" /><stop
           offset="0.3974"
           style="stop-color:#EBEBEB"
           id="stop115" /><stop
           offset="0.4931"
           style="stop-color:#F6F6F6"
           id="stop117" /><stop
           offset="0.6274"
           style="stop-color:#FDFDFD"
           id="stop119" /><stop
           offset="1"
           style="stop-color:#FFFFFF"
           id="stop121" /></linearGradient><rect
         x="9.4049997"
         y="92.938004"
         clip-path="url(#SVGID_2_)"
         fill="url(#SVGID_4_)"
         width="172.81599"
         height="5.2649999"
         id="rect124" /></g></mask><filter
     id="Adobe_OpacityMaskFilter"
     filterUnits="userSpaceOnUse"
     x="9.4049997"
     y="92.938004"
     width="172.81599"
     height="5.2649999"><feColorMatrix
       type="matrix"
       values="1 0 0 0 0  0 1 0 0 0  0 0 1 0 0  0 0 0 1 0"
       id="feColorMatrix94" /></filter><linearGradient
     id="linearGradient275"
     gradientUnits="userSpaceOnUse"
     x1="-0.068800002"
     y1="394.20309"
     x2="1.6152"
     y2="394.20309"
     gradientTransform="matrix(102.6416,0,0,-102.6416,16.4199,40557.129)"><stop
       offset="0"
       style="stop-color:#000000"
       id="stop251" /><stop
       offset="0.0074"
       style="stop-color:#090909"
       id="stop253" /><stop
       offset="0.0477"
       style="stop-color:#373737"
       id="stop255" /><stop
       offset="0.0931"
       style="stop-color:#626262"
       id="stop257" /><stop
       offset="0.1419"
       style="stop-color:#888888"
       id="stop259" /><stop
       offset="0.195"
       style="stop-color:#A8A8A8"
       id="stop261" /><stop
       offset="0.2537"
       style="stop-color:#C4C4C4"
       id="stop263" /><stop
       offset="0.32"
       style="stop-color:#DADADA"
       id="stop265" /><stop
       offset="0.3974"
       style="stop-color:#EBEBEB"
       id="stop267" /><stop
       offset="0.4931"
       style="stop-color:#F6F6F6"
       id="stop269" /><stop
       offset="0.6274"
       style="stop-color:#FDFDFD"
       id="stop271" /><stop
       offset="1"
       style="stop-color:#FFFFFF"
       id="stop273" /></linearGradient><clipPath
     id="clipPath279"><use
       xlink:href="#SVGID_1_"
       overflow="visible"
       id="use277"
       x="0"
       y="0"
       width="100%"
       height="100%" /></clipPath><linearGradient
     id="SVGID_10_"
     gradientUnits="userSpaceOnUse"
     x1="1.3745"
     y1="394.14749"
     x2="3.0581"
     y2="394.14749"
     gradientTransform="matrix(104.7354,0,0,-104.7354,237.2324,41376.801)"><stop
       offset="0"
       style="stop-color:#99C45A"
       id="stop181" /><stop
       offset="0.8587"
       style="stop-color:#99C45A"
       id="stop183" /><stop
       offset="1"
       style="stop-color:#99C45A"
       id="stop185" /></linearGradient><clipPath
     id="SVGID_7_"><use
       xlink:href="#SVGID_6_"
       overflow="visible"
       id="use143"
       x="0"
       y="0"
       width="100%"
       height="100%" /></clipPath><mask
     maskUnits="userSpaceOnUse"
     x="381.181"
     y="92.938"
     width="176.344"
     height="5.265"
     id="SVGID_8_"><g
       filter="url(#Adobe_OpacityMaskFilter_1_)"
       id="g178"><linearGradient
         id="SVGID_9_"
         gradientUnits="userSpaceOnUse"
         x1="1.3745"
         y1="394.14749"
         x2="3.0581"
         y2="394.14749"
         gradientTransform="matrix(104.7354,0,0,-104.7354,237.2324,41376.801)"><stop
           offset="0"
           style="stop-color:#FFFFFF"
           id="stop151" /><stop
           offset="0.3726"
           style="stop-color:#FDFDFD"
           id="stop153" /><stop
           offset="0.5069"
           style="stop-color:#F6F6F6"
           id="stop155" /><stop
           offset="0.6026"
           style="stop-color:#EBEBEB"
           id="stop157" /><stop
           offset="0.68"
           style="stop-color:#DADADA"
           id="stop159" /><stop
           offset="0.7463"
           style="stop-color:#C4C4C4"
           id="stop161" /><stop
           offset="0.805"
           style="stop-color:#A8A8A8"
           id="stop163" /><stop
           offset="0.8581"
           style="stop-color:#888888"
           id="stop165" /><stop
           offset="0.9069"
           style="stop-color:#626262"
           id="stop167" /><stop
           offset="0.9523"
           style="stop-color:#373737"
           id="stop169" /><stop
           offset="0.9926"
           style="stop-color:#090909"
           id="stop171" /><stop
           offset="1"
           style="stop-color:#000000"
           id="stop173" /></linearGradient><rect
         x="381.181"
         y="92.938004"
         clip-path="url(#SVGID_7_)"
         fill="url(#SVGID_9_)"
         width="176.34399"
         height="5.2649999"
         id="rect176" /></g></mask><filter
     id="Adobe_OpacityMaskFilter_1_"
     filterUnits="userSpaceOnUse"
     x="381.181"
     y="92.938004"
     width="176.34399"
     height="5.2649999"><feColorMatrix
       type="matrix"
       values="1 0 0 0 0  0 1 0 0 0  0 0 1 0 0  0 0 0 1 0"
       id="feColorMatrix146" /></filter><linearGradient
     id="linearGradient329"
     gradientUnits="userSpaceOnUse"
     x1="1.3745"
     y1="394.14749"
     x2="3.0581"
     y2="394.14749"
     gradientTransform="matrix(104.7354,0,0,-104.7354,237.2324,41376.801)"><stop
       offset="0"
       style="stop-color:#FFFFFF"
       id="stop305" /><stop
       offset="0.3726"
       style="stop-color:#FDFDFD"
       id="stop307" /><stop
       offset="0.5069"
       style="stop-color:#F6F6F6"
       id="stop309" /><stop
       offset="0.6026"
       style="stop-color:#EBEBEB"
       id="stop311" /><stop
       offset="0.68"
       style="stop-color:#DADADA"
       id="stop313" /><stop
       offset="0.7463"
       style="stop-color:#C4C4C4"
       id="stop315" /><stop
       offset="0.805"
       style="stop-color:#A8A8A8"
       id="stop317" /><stop
       offset="0.8581"
       style="stop-color:#888888"
       id="stop319" /><stop
       offset="0.9069"
       style="stop-color:#626262"
       id="stop321" /><stop
       offset="0.9523"
       style="stop-color:#373737"
       id="stop323" /><stop
       offset="0.9926"
       style="stop-color:#090909"
       id="stop325" /><stop
       offset="1"
       style="stop-color:#000000"
       id="stop327" /></linearGradient><clipPath
     id="clipPath333"><use
       xlink:href="#SVGID_6_"
       overflow="visible"
       id="use331"
       x="0"
       y="0"
       width="100%"
       height="100%" /></clipPath><path
     id="SVGID_1_"
     d="m 12.035,92.938 c -1.455,0 -2.63,1.178 -2.63,2.631 0,1.454 1.175,2.634 2.63,2.634 h 167.554 c 1.451,0 2.632,-1.18 2.632,-2.634 0,-1.453 -1.181,-2.631 -2.632,-2.631 z" /><filter
     id="filter388"
     filterUnits="userSpaceOnUse"
     x="9.4049997"
     y="92.938004"
     width="172.81599"
     height="5.2649999"><feColorMatrix
       type="matrix"
       values="1 0 0 0 0  0 1 0 0 0  0 0 1 0 0  0 0 0 1 0"
       id="feColorMatrix386" /></filter><path
     id="SVGID_6_"
     d="m 383.809,92.938 c -1.449,0 -2.628,1.178 -2.628,2.631 0,1.454 1.179,2.634 2.628,2.634 h 171.087 c 1.446,0 2.629,-1.18 2.629,-2.634 0,-1.453 -1.183,-2.631 -2.629,-2.631 z" /><filter
     id="filter441"
     filterUnits="userSpaceOnUse"
     x="381.181"
     y="92.938004"
     width="176.34399"
     height="5.2649999"><feColorMatrix
       type="matrix"
       values="1 0 0 0 0  0 1 0 0 0  0 0 1 0 0  0 0 0 1 0"
       id="feColorMatrix439" /></filter></defs><sodipodi:namedview
   pagecolor="#ffffff"
   bordercolor="#666666"
   borderopacity="1"
   objecttolerance="10"
   gridtolerance="10"
   guidetolerance="10"
   inkscape:pageopacity="0"
   inkscape:pageshadow="2"
   inkscape:window-width="1366"
   inkscape:window-height="705"
   id="namedview53"
   showgrid="false"
   inkscape:zoom="1.8973881"
   inkscape:cx="52.888921"
   inkscape:cy="50.622419"
   inkscape:window-x="-8"
   inkscape:window-y="-8"
   inkscape:window-maximized="1"
   inkscape:current-layer="Layer_2"
   inkscape:document-rotation="0" />
<style
   type="text/css"
   id="style2">
	.st0{fill:#14BF98;}
	.st1{fill:#FFFFFF;}
</style>
<title
   id="title4">logo</title>























<g
   id="g210"
   transform="matrix(0.22777386,0,0,0.35862995,-1.0705219,-1.5449656)"><g
     id="g86"><path
       fill="#df8844"
       d="m 37.687,40.56 c -4.492,0 -8.599,1.838 -11.533,4.784 -2.948,2.934 -4.78,7.041 -4.78,11.532 v 14.9 h 12.389 v -6.523 -8.126 c 0,-1.779 0.423,-3.309 1.141,-4.482 0.749,-1.171 1.678,-1.854 2.784,-1.865 1.101,0.011 2.046,0.694 2.778,1.865 0.719,1.174 1.146,2.703 1.15,4.482 v 14.649 h 12.383 v -14.9 C 54.004,52.385 52.172,48.277 49.219,45.344 46.281,42.397 42.176,40.56 37.687,40.56"
       id="path2" /><path
       fill="#df8844"
       d="m 334.317,40.56 c -4.482,0 -8.598,1.838 -11.527,4.784 -2.948,2.934 -4.785,7.041 -4.785,11.532 v 14.9 h 12.391 v -6.523 -8.126 c 0,-1.779 0.424,-3.309 1.152,-4.482 0.726,-1.171 1.666,-1.854 2.77,-1.865 1.109,0.011 2.05,0.694 2.775,1.865 0.729,1.174 1.146,2.703 1.163,4.482 v 14.649 h 12.372 v -14.9 c 0.01,-4.491 -1.828,-8.599 -4.774,-11.532 -2.94,-2.947 -7.053,-4.784 -11.537,-4.784"
       id="path4" /><path
       fill="#df8844"
       d="m 133.327,49.708 c 1.727,-2.946 0.755,-6.745 -2.187,-8.484 -2.95,-1.726 -6.753,-0.753 -8.49,2.187 l -5.603,10.026 v -6.675 c 0,-3.424 -2.774,-6.199 -6.196,-6.199 -3.419,0 -6.192,2.775 -6.192,6.199 v 25.015 h 12.389 v -9.803 l 6.533,9.803 h 14.029 l -8.984,-13.548 z"
       id="path6" /><path
       fill="#df8844"
       d="m 67.33,36.548 c 1.239,-1.243 2.014,-2.956 2.014,-4.868 0,-1.894 -0.774,-3.616 -2.014,-4.862 -1.253,-1.244 -2.973,-2.013 -4.879,-2.013 -1.891,0 -3.615,0.769 -4.861,2.013 -1.242,1.246 -2.012,2.969 -2.012,4.862 0,1.912 0.77,3.625 2.012,4.868 l 1.52,1.525 c 2.542,2.545 2.722,3.213 0.311,5.63 l -1.381,1.378 c -1.136,1.134 -1.841,2.696 -1.841,4.417 V 71.776 H 68.718 V 49.498 c 0,-1.721 -0.699,-3.283 -1.825,-4.417 l -1.386,-1.378 c -2.418,-2.417 -2.231,-3.085 0.301,-5.63 z"
       id="path8" /><path
       fill="#df8844"
       d="m 89.509,62.082 c -0.731,1.349 -1.674,2.145 -2.785,2.145 -1.096,0 -2.036,-0.796 -2.768,-2.145 -0.721,-1.365 -1.147,-3.124 -1.147,-5.189 0,-2.064 0.426,-3.824 1.147,-5.188 0.732,-1.342 1.676,-2.141 2.768,-2.141 1.111,0 2.054,0.799 2.785,2.141 0.539,1.017 0.913,2.253 1.067,3.646 h 12.4 c -0.364,-3.877 -2.104,-7.396 -4.707,-9.99 -2.935,-2.946 -7.046,-4.784 -11.545,-4.775 -4.47,-0.009 -8.601,1.829 -11.525,4.775 -2.942,2.934 -4.78,7.048 -4.78,11.532 0,4.489 1.838,8.604 4.78,11.539 2.256,2.253 6.196,4.782 11.535,4.782 4.009,0 7.729,-1.479 10.576,-3.894 2.072,-1.763 5.136,-5.288 5.667,-10.896 h -12.4 c -0.156,1.409 -0.53,2.651 -1.068,3.658"
       id="path10" /><path
       fill="#df8844"
       d="m 150.72,40.56 c -4.476,-0.013 -8.6,1.821 -11.531,4.771 -2.943,2.937 -4.782,7.044 -4.782,11.532 0,4.492 1.839,8.605 4.782,11.547 2.854,2.857 6.904,4.771 11.599,4.768 4.854,0.003 8.866,-2.161 11.568,-4.873 3.411,-3.914 3.571,-8.093 3.571,-8.093 h -11.035 c 0,0 -1.53,3.857 -4.172,3.857 -1.107,0 -2.05,-0.804 -2.774,-2.158 -0.49,-0.924 -0.854,-2.049 -1.025,-3.334 h 19.229 c 0,0 1.313,-7.844 -3.941,-13.154 -3.054,-3.082 -6.958,-4.876 -11.489,-4.863 m -3.59,13.4 c 0.224,-0.961 0.518,-1.799 0.815,-2.424 0.552,-1.174 1.667,-2.137 2.774,-2.147 1.122,0.011 2.021,0.8 2.795,2.199 0.344,0.597 0.643,1.654 0.786,2.349 z"
       id="path12" /><path
       fill="#df8844"
       d="m 266.594,40.56 c -4.488,-0.013 -8.595,1.821 -11.531,4.771 -2.938,2.937 -4.776,7.044 -4.776,11.532 0,4.492 1.839,8.605 4.776,11.547 2.866,2.857 6.908,4.771 11.618,4.768 4.843,0.003 8.841,-2.161 11.552,-4.873 3.409,-3.914 3.574,-8.093 3.574,-8.093 h -11.043 c 0,0 -1.531,3.857 -4.17,3.857 -1.104,0 -2.045,-0.804 -2.775,-2.158 -0.493,-0.924 -0.842,-2.049 -1.019,-3.334 h 19.223 c 0,0 1.324,-7.844 -3.946,-13.154 -3.067,-3.082 -6.944,-4.876 -11.483,-4.863 m -3.586,13.4 c 0.212,-0.961 0.525,-1.799 0.81,-2.424 0.554,-1.174 1.672,-2.137 2.775,-2.147 1.112,0.011 2.024,0.8 2.808,2.199 0.33,0.597 0.633,1.654 0.775,2.349 z"
       id="path14" /><path
       fill="#df8844"
       d="m 174.051,24.739 c -3.418,0 -6.187,2.777 -6.187,6.195 l 0.008,40.842 h 12.382 l -0.015,-40.85 c -0.001,-3.409 -2.762,-6.187 -6.188,-6.187"
       id="path16" /><path
       fill="#df8844"
       d="m 198.284,40.56 c -9.006,0 -16.316,7.304 -16.316,16.316 0,9.011 7.31,16.314 16.316,16.314 9.009,0 16.313,-7.304 16.313,-16.314 0,-9.013 -7.304,-16.316 -16.313,-16.316 m 0,23.667 c -2.163,0 -3.92,-3.295 -3.92,-7.351 0,-4.054 1.757,-7.346 3.92,-7.346 2.177,0 3.932,3.292 3.932,7.346 0,4.056 -1.755,7.351 -3.932,7.351"
       id="path18" /><path
       fill="#df8844"
       d="m 300.157,40.56 c -9.004,0 -16.304,7.304 -16.304,16.316 0,9.011 7.3,16.314 16.304,16.314 9.016,0 16.313,-7.304 16.313,-16.314 0,-9.013 -7.297,-16.316 -16.313,-16.316 m 0,23.667 c -2.156,0 -3.918,-3.295 -3.918,-7.351 0,-4.054 1.762,-7.346 3.918,-7.346 2.18,0 3.94,3.292 3.94,7.346 0.001,4.056 -1.76,7.351 -3.94,7.351"
       id="path20" /><path
       fill="#df8844"
       d="m 248.712,56.876 0.019,0.017 -0.012,-25.958 c 0,-3.421 -2.775,-6.195 -6.197,-6.195 -3.422,0 -6.185,2.777 -6.185,6.195 V 41.06 c -1.266,-0.31 -2.576,-0.475 -3.937,-0.475 -4.491,-0.009 -8.605,1.829 -11.532,4.775 -2.955,2.92 -4.777,7.048 -4.777,11.532 0,4.489 1.822,8.604 4.777,11.539 1.878,1.875 5.913,4.782 11.532,4.782 5.622,0 9.652,-2.907 11.54,-4.782 2.946,-2.936 4.771,-7.05 4.771,-11.539 V 56.876 Z M 232.4,64.227 c -2.174,0 -3.926,-3.295 -3.926,-7.351 0,-4.054 1.752,-7.346 3.926,-7.346 2.172,0 3.937,3.292 3.937,7.346 0,4.056 -1.764,7.351 -3.937,7.351"
       id="path22" /><path
       fill="#99c45a"
       d="m 392.682,48.501 c -0.981,-0.938 -2.134,-1.733 -3.463,-2.381 -1.336,-0.645 -2.767,-1.203 -4.292,-1.678 l -2.943,-0.884 c -0.507,-0.154 -1.055,-0.336 -1.638,-0.549 -0.592,-0.224 -1.138,-0.494 -1.645,-0.825 -0.511,-0.333 -0.94,-0.722 -1.299,-1.178 -0.349,-0.447 -0.526,-1.007 -0.526,-1.674 0,-0.622 0.158,-1.164 0.475,-1.615 0.313,-0.45 0.708,-0.832 1.196,-1.145 0.497,-0.309 1.02,-0.549 1.588,-0.709 0.565,-0.152 1.13,-0.238 1.682,-0.238 1.407,0 2.765,0.268 4.078,0.804 1.312,0.525 2.501,1.243 3.557,2.138 l 4.577,-8.926 c -0.975,-0.556 -2.038,-1.049 -3.195,-1.496 -1.149,-0.45 -2.33,-0.836 -3.524,-1.148 -1.195,-0.314 -2.415,-0.565 -3.642,-0.736 -1.239,-0.177 -2.402,-0.264 -3.504,-0.264 -2.224,0 -4.278,0.353 -6.134,1.057 -1.865,0.703 -3.468,1.706 -4.821,2.995 -1.355,1.293 -2.414,2.861 -3.174,4.703 -0.76,1.841 -1.145,3.874 -1.145,6.109 0,2.154 0.29,3.923 0.853,5.292 0.568,1.37 1.382,2.506 2.442,3.41 1.057,0.894 2.316,1.627 3.781,2.196 1.475,0.566 3.108,1.104 4.91,1.617 0.63,0.198 1.336,0.409 2.148,0.648 0.797,0.236 1.557,0.546 2.285,0.937 0.732,0.389 1.334,0.865 1.825,1.408 0.492,0.553 0.732,1.24 0.732,2.055 0,0.79 -0.157,1.461 -0.502,2.032 -0.331,0.567 -0.758,1.027 -1.287,1.378 -0.536,0.353 -1.127,0.622 -1.792,0.793 -0.664,0.178 -1.33,0.271 -1.999,0.271 -2.002,0 -3.842,-0.454 -5.524,-1.353 -1.684,-0.907 -3.254,-1.976 -4.696,-3.232 l -4.941,9.284 c 2.275,1.604 4.728,2.847 7.376,3.731 2.645,0.878 5.379,1.322 8.2,1.322 2.228,0 4.442,-0.322 6.638,-0.97 2.195,-0.642 4.169,-1.707 5.931,-3.206 1.763,-1.49 2.967,-3.296 3.617,-5.434 0.646,-2.138 0.967,-4.294 0.967,-6.491 0,-1.805 -0.285,-3.363 -0.848,-4.672 -0.568,-1.317 -1.345,-2.436 -2.324,-3.376"
       id="path24" /><path
       fill="#99c45a"
       d="m 426.644,50.497 c 0,1.451 -0.046,2.895 -0.171,4.317 -0.118,1.431 -0.429,2.724 -0.943,3.885 -0.504,1.154 -1.294,2.078 -2.342,2.785 -1.065,0.703 -2.505,1.058 -4.35,1.058 -1.842,0 -3.292,-0.354 -4.352,-1.058 -1.058,-0.707 -1.839,-1.631 -2.345,-2.785 -0.51,-1.161 -0.825,-2.454 -0.947,-3.885 -0.115,-1.423 -0.177,-2.866 -0.177,-4.317 V 27.172 H 399.5 v 24.91 c 0,1.417 0.044,2.825 0.129,4.236 0.073,1.399 0.262,2.781 0.557,4.106 0.292,1.339 0.749,2.617 1.374,3.852 0.63,1.232 1.489,2.38 2.585,3.442 0.943,0.895 1.989,1.657 3.141,2.285 1.164,0.631 2.374,1.139 3.646,1.529 1.278,0.395 2.585,0.674 3.937,0.855 1.354,0.171 2.674,0.263 3.97,0.263 1.292,0 2.614,-0.092 3.969,-0.263 1.345,-0.182 2.657,-0.461 3.938,-0.855 1.266,-0.391 2.484,-0.898 3.635,-1.529 1.154,-0.628 2.207,-1.391 3.148,-2.285 1.095,-1.063 1.956,-2.21 2.585,-3.442 0.627,-1.234 1.083,-2.513 1.382,-3.852 0.298,-1.325 0.484,-2.707 0.551,-4.106 0.085,-1.411 0.129,-2.819 0.129,-4.236 v -24.91 h -11.53 v 23.325 z"
       id="path26" /><rect
       x="443.776"
       y="27.172001"
       fill="#99c45a"
       width="11.518"
       height="44.299"
       id="rect28" /><polygon
       fill="#99c45a"
       points="467.313,36.922 467.313,71.475 478.835,71.475 478.835,36.922 486.743,36.922 486.743,27.172 459.408,27.172 459.408,36.922 "
       id="polygon30" /><polygon
       fill="#99c45a"
       points="515.351,36.919 515.351,27.172 490.145,27.172 490.145,71.471 515.351,71.471 515.351,61.721 501.665,61.721 501.665,54.082 514.642,54.082 514.642,44.331 501.665,44.331 501.665,36.919 "
       id="polygon32" /><path
       fill="#99c45a"
       d="m 509.969,20.42 0.765,0.268 c 0.974,0.358 2.071,0.76 3.093,0.397 0.963,-0.342 1.155,-0.828 1.139,-1.178 -0.038,-0.864 -1.281,-1.512 -2.115,-1.743 -2.067,-0.562 -3.365,-0.439 -3.97,0.356 -0.257,0.348 -0.342,0.677 -0.233,0.983 0.157,0.51 0.752,0.746 1.321,0.917"
       id="path34" /><path
       fill="#99c45a"
       d="m 524.114,13.738 c 0.554,0.178 1.016,-0.013 1.24,-0.502 0.138,-0.283 0.146,-0.53 0.036,-0.754 -0.201,-0.408 -0.704,-0.529 -1.074,-0.615 l -0.14,-0.036 -0.62,-0.114 c -0.654,-0.046 -0.776,0.345 -0.8,0.463 -0.107,0.565 0.671,1.339 1.358,1.558"
       id="path36" /><path
       fill="#99c45a"
       d="m 598.294,25.531 c -1.817,-0.714 -4.237,-0.227 -5.369,1.046 -4.474,4.225 -9.743,8.861 -14.812,11.243 -2.132,1.02 -7.351,3.643 -12.883,6.435 -4.746,2.391 -9.875,4.974 -13.648,6.834 -0.027,-0.529 -0.167,-1.082 -0.58,-1.595 l -0.457,-0.407 c -0.229,-0.349 -0.307,-0.721 -0.262,-1.198 0.335,-0.591 1.014,-1.078 1.764,-1.265 l 0.282,-0.139 c 0.1,-0.072 0.186,-0.158 0.257,-0.24 0.378,-0.404 0.533,-0.868 0.464,-1.45 l -0.196,-0.477 c -0.254,-0.461 -0.707,-0.734 -1.233,-0.734 l -0.445,0.053 -0.645,0.379 c -0.146,0.154 -0.288,0.321 -0.418,0.5 l -0.218,0.355 c -0.023,0.071 -0.052,0.144 -0.088,0.229 -0.025,0.056 -0.066,0.118 -0.013,0.069 -0.394,0.471 -0.729,0.842 -1.235,0.938 l -0.261,0.065 c -0.18,0.036 -0.372,0.063 -0.572,0.065 l -0.653,0.264 -0.175,0.177 -0.456,0.108 c 0.057,-1.538 0.207,-2.817 0.207,-2.817 0,0 -1.007,0.911 -2.258,1.825 -1.116,-0.507 -2.283,-0.967 -3.529,-1.353 l -2.94,-0.884 c -0.505,-0.154 -1.056,-0.336 -1.643,-0.549 -0.589,-0.224 -1.142,-0.494 -1.646,-0.825 -0.508,-0.333 -0.944,-0.722 -1.295,-1.178 -0.353,-0.447 -0.527,-1.007 -0.527,-1.674 0,-0.622 0.156,-1.164 0.469,-1.615 0.313,-0.45 0.71,-0.832 1.203,-1.145 0.49,-0.309 1.02,-0.549 1.586,-0.709 0.571,-0.152 1.125,-0.234 1.675,-0.234 1.415,0 2.767,0.264 4.083,0.8 1.317,0.525 2.504,1.243 3.554,2.138 l 4.586,-8.926 c -0.978,-0.556 -2.046,-1.049 -3.205,-1.496 -1.148,-0.45 -2.327,-0.836 -3.522,-1.148 -1.195,-0.314 -2.407,-0.565 -3.644,-0.736 -1.231,-0.174 -2.401,-0.264 -3.493,-0.264 -2.229,0 -4.281,0.353 -6.148,1.057 -1.349,0.516 -2.521,1.236 -3.606,2.064 -0.171,-0.667 -0.801,-1.314 -1.389,-1.752 0.806,0.447 1.647,0.625 2.158,-0.057 0.81,-1.068 0.164,-2.834 -0.466,-3.723 -0.764,-1.102 -2.061,-2.196 -3.455,-1.46 -1.351,0.73 0.255,2.658 -0.226,3.56 -0.483,0.896 -2.513,-0.276 -2.963,1.325 -0.368,1.292 1.304,2.481 2.208,3.087 0.619,0.414 1.424,0.775 2.195,0.828 -0.983,1.112 -1.833,2.354 -2.439,3.825 -0.765,1.841 -1.146,3.874 -1.146,6.106 0,2.157 0.282,3.926 0.852,5.295 0.565,1.37 1.381,2.506 2.438,3.406 1.057,0.897 2.321,1.631 3.788,2.2 1.463,0.566 3.107,1.104 4.908,1.617 0.631,0.198 1.342,0.409 2.144,0.648 0.81,0.233 1.565,0.546 2.291,0.937 0.729,0.389 1.33,0.865 1.819,1.408 0.494,0.553 0.737,1.24 0.737,2.055 0,0.79 -0.165,1.461 -0.497,2.032 -0.33,0.567 -0.759,1.027 -1.295,1.378 -0.53,0.353 -1.125,0.622 -1.788,0.793 -0.666,0.178 -1.337,0.271 -2,0.271 -2,0 -3.844,-0.454 -5.525,-1.353 -1.688,-0.907 -3.25,-1.976 -4.702,-3.232 l -4.939,9.284 c 2.277,1.604 4.738,2.847 7.381,3.731 1.617,0.536 3.275,0.892 4.965,1.099 0.761,0.234 1.538,0.385 1.923,0.443 l -0.003,0.011 c 0.008,0.003 0.824,0.2 1.484,0.2 0.182,0 0.331,-0.02 0.52,-0.059 1.035,-0.194 1.568,-0.254 1.921,-0.243 0.669,1.036 1.126,1.854 1.126,1.854 0,0 0.028,-0.161 0.063,-0.391 0.015,0.556 0.089,1.142 0.276,1.736 l 2.844,0.306 c 0.127,-1.135 0.158,-2.062 0.121,-2.834 0.012,0.052 0.022,0.102 0.033,0.16 l 0.072,0.194 c 0.014,0.063 0.033,0.135 0.08,0.286 0.202,0.615 0.563,1.371 1.544,1.766 l 0.289,0.05 0.302,-0.026 c 0.458,-0.085 0.814,-0.365 1.003,-0.829 0.081,-0.154 0.138,-0.338 0.16,-0.526 0.011,-0.118 0.022,-0.24 0.008,-0.302 -0.023,-0.73 -1.052,-2.565 -1.052,-2.565 -0.012,-0.017 -0.021,-0.036 -0.031,-0.06 0.18,-0.114 0.37,-0.217 0.54,-0.391 0.104,-0.093 0.146,-0.168 0.23,-0.35 0.012,-0.016 0.017,-0.025 0.028,-0.042 0.793,0.94 1.443,2.02 2.094,3.167 l 0.463,0.608 c 0.603,0.757 1.403,1.519 2.829,1.535 h 0.136 l 0.138,-0.049 c 0.117,-0.046 0.265,-0.108 0.37,-0.185 0.484,-0.296 0.764,-0.763 0.757,-1.178 0.021,-0.102 0.04,-0.209 0.04,-0.285 0.019,-0.22 0.005,-0.447 -0.059,-0.724 -0.045,-0.135 -0.086,-0.256 -0.122,-0.332 -0.392,-0.947 -1.237,-1.675 -1.979,-2.278 L 548.8,70.444 c -0.227,-0.197 -0.464,-0.407 -0.699,-0.618 0.6,-0.095 1.094,-0.266 1.356,-0.647 0.145,-0.207 0.212,-0.451 0.186,-0.704 0.036,-0.201 0.019,-0.408 -0.015,-0.604 0.011,0 0.015,-0.011 0.024,-0.014 0.579,0.559 1.193,1.299 1.787,2.038 0.571,0.715 1.108,1.386 1.641,1.895 0.564,0.536 1.13,0.918 1.629,1.253 0.591,0.405 1.15,0.786 1.638,1.345 l 0.761,0.958 c 0.659,0.842 1.276,1.644 2.436,2.226 0.359,0.188 0.712,0.322 1.178,0.51 0.357,0.139 0.725,0.276 1.073,0.453 l 0.443,0.244 c 0.805,0.45 1.801,1.014 2.574,1.014 0.5,0 0.785,-0.234 0.934,-0.435 0.442,-0.608 0.459,-1.425 0.053,-2.292 -0.5,-1.029 -1.538,-1.974 -2.435,-2.203 l -0.998,-0.231 c -1.339,-0.289 -2.221,-0.479 -3.628,-1.995 -0.62,-0.658 -1.16,-1.105 -1.748,-1.599 l -0.692,-0.592 c -0.393,-0.335 -0.782,-0.736 -1.263,-1.224 -0.535,-0.553 -1.087,-1.124 -1.698,-1.607 l -1.268,-0.971 c -0.406,-0.321 -0.854,-0.654 -1.289,-1.007 0.008,-0.091 0.025,-0.171 0.049,-0.226 0.147,-0.175 0.394,-0.359 0.824,-0.556 0.118,-0.061 0.233,-0.099 0.407,-0.146 l -0.067,-0.681 0.085,0.681 c 0.068,-0.006 0.109,-0.013 0.163,-0.02 v 0.003 c 0.218,0 0.453,0.08 0.686,0.165 0.094,0.055 0.203,0.115 0.342,0.204 l 0.476,0.289 c 0,0 0.683,0.523 0.932,0.72 l 0.359,0.283 c 0.539,0.421 1.07,0.842 1.623,1.2 l 0.137,0.078 c 0.205,0.172 0.436,0.319 0.693,0.451 0.09,0.049 0.19,0.092 0.231,0.105 0.276,0.128 0.584,0.197 0.883,0.197 0.417,0 0.814,-0.118 1.144,-0.342 0.534,-0.359 0.812,-0.941 0.763,-1.687 l -0.137,-0.471 c -0.036,-0.082 -0.067,-0.154 -0.149,-0.296 -0.477,-0.685 -1.149,-1.24 -2.027,-1.658 l -0.349,-0.099 c -0.52,-0.125 -1.01,-0.236 -1.472,-0.332 -1.31,-0.293 -2.345,-0.529 -3.11,-0.983 -0.055,-0.025 -0.114,-0.059 -0.163,-0.085 -0.127,-0.099 -0.217,-0.214 -0.349,-0.497 -0.392,-0.977 0.671,-1.699 1.154,-1.973 0.068,-0.039 0.137,-0.082 0.158,-0.096 0.25,-0.092 0.508,-0.21 0.768,-0.322 0.582,-0.269 1.146,-0.523 1.723,-0.525 0.591,0.099 1.069,0.229 1.427,0.395 l 0.185,0.065 c 0.756,0.228 1.43,0.418 2.032,0.418 l 0.3,-0.02 c 0.496,0 0.923,-0.207 1.159,-0.582 0.228,-0.343 0.263,-0.773 0.102,-1.145 l -0.155,-0.27 c -0.063,-0.076 -0.114,-0.146 -0.141,-0.178 l -0.191,-0.208 -0.113,-0.068 c -0.542,-0.316 -1.253,-0.401 -2.026,-0.329 0.094,-0.213 0.102,-0.437 0.066,-0.631 -0.091,-0.572 -0.538,-0.951 -1.136,-0.951 -0.402,0 -0.819,0.175 -1.158,0.333 l -0.285,0.15 c -0.195,0.069 -0.396,0.105 -0.628,0.105 l -0.144,-0.003 c -0.207,-0.065 -0.374,-0.154 -0.524,-0.28 -0.026,-0.025 -0.06,-0.046 -0.084,-0.074 l -0.144,-0.291 c -0.333,-0.72 -0.958,-1.361 -1.648,-1.713 l -0.244,-0.108 c -0.271,-0.099 -0.578,-0.142 -0.862,-0.193 -0.142,-0.014 -0.294,-0.04 -0.495,-0.087 2.791,-1.357 5.466,-2.692 8.07,-3.995 11.724,-5.859 21.842,-10.918 36.155,-14.919 2.225,-0.471 3.854,-2.608 4.37,-5.788 0.023,-1.443 -0.764,-2.581 -2.151,-3.12"
       id="path38" /><path
       fill="#99c45a"
       d="m 557.64,40.707 c 2.242,-0.802 4.064,-2.252 4.55,-3.594 0.222,-0.631 0.082,-1.076 -0.078,-1.338 -0.325,-0.54 -1.131,-0.738 -1.778,-0.54 -3.231,0.943 -5.215,4.259 -5.763,6.251 l -0.374,1.349 1.065,-0.91 c 0.893,-0.768 2.338,-1.207 2.378,-1.218"
       id="path40" /><path
       fill="#99c45a"
       d="m 579.016,54.717 c -2.211,-0.565 -7.225,0.549 -9.805,1.877 -0.099,0.053 0.163,0.533 0.208,0.624 0.761,1.369 2.372,0.983 3.604,1.24 h 0.005 c 1.896,0.796 5.36,1.171 6.744,0.701 0.438,-0.148 1.219,-0.54 1.377,-1.096 0.227,-0.757 0.101,-1.62 -0.226,-2.051 -0.321,-0.441 -0.897,-1.035 -1.907,-1.295"
       id="path42" /><path
       fill="#99c45a"
       d="m 575.243,71.04 c -0.472,-0.443 -1.097,-0.821 -1.761,-0.618 -0.555,0.161 -0.875,0.642 -1.029,1.167 0.059,0.615 0.07,1.457 0.941,1.786 0.644,0.197 1.325,0.102 1.733,-0.329 0.535,-0.529 0.563,-1.302 0.116,-2.006"
       id="path44" /><path
       fill="#99c45a"
       d="m 565.513,59.441 c -0.435,-0.131 -1.118,-0.175 -1.429,0.372 -0.226,0.553 -0.081,1.062 0.165,1.52 0.182,-0.154 0.271,0.102 0.398,0.207 0.39,0.4 0.828,-0.205 1.173,-0.083 -0.102,-0.335 0.208,-0.249 0.244,-0.361 0.264,-0.2 -0.076,-0.371 0.132,-0.556 -0.294,-0.349 -0.168,-0.904 -0.683,-1.099"
       id="path46" /><path
       fill="#99c45a"
       d="m 565.639,72.146 c 0.504,-0.007 0.58,-0.572 0.643,-1.03 0.028,-0.562 -0.224,-1.091 -0.679,-1.453 -0.534,-0.19 -1.022,-0.158 -1.406,0.273 -0.367,0.543 0.044,1.216 0.288,1.756 0.317,0.337 0.764,0.561 1.154,0.454"
       id="path48" /><path
       fill="#99c45a"
       d="m 570.691,77.068 c -0.289,-0.146 -0.652,-0.057 -0.773,0.21 0.036,0.349 0.154,0.729 0.54,0.892 0.276,0.056 0.735,0.243 0.841,-0.105 0.071,-0.355 -0.168,-0.796 -0.608,-0.997"
       id="path50" /><path
       fill="#99c45a"
       d="m 570.746,83.845 c -0.336,-0.131 -0.751,-0.374 -0.969,0.109 -0.148,0.354 -0.039,0.763 0.259,0.973 0.304,0.007 0.655,0.165 0.854,-0.236 -0.036,-0.277 0.141,-0.671 -0.144,-0.846"
       id="path52" /><path
       fill="#99c45a"
       d="m 572.301,84.003 c -0.082,0.405 0.085,0.724 0.32,0.971 0.384,0.233 0.934,0.549 1.304,0.19 0.066,-0.665 -0.449,-0.809 -0.788,-1.335 -0.273,-0.158 -0.661,-0.158 -0.836,0.174"
       id="path54" /><path
       fill="#99c45a"
       d="m 573.86,82.616 c -0.182,-0.097 -0.512,-0.194 -0.67,0.021 -0.186,0.517 0.422,0.823 0.777,0.639 -0.042,-0.233 0.122,-0.497 -0.107,-0.66"
       id="path56" /><path
       fill="#99c45a"
       d="m 572.946,63.631 c 0.736,0.586 1.417,1.608 2.504,1.279 l -0.084,-0.349 c -0.58,-0.608 -1.62,-1.203 -2.42,-0.93"
       id="path58" /><path
       fill="#99c45a"
       d="m 575.068,63.9 c 0.137,0.353 0.533,0.454 0.829,0.638 0.443,-0.16 0.83,0.576 1.263,0.155 -0.633,-0.223 -1.314,-1.171 -2.092,-0.793"
       id="path60" /><path
       fill="#99c45a"
       d="m 574.202,63.382 c 0.496,0.085 1.248,0.017 1.573,-0.441 0.283,-0.313 -0.154,-0.496 -0.231,-0.717 -0.471,-0.296 -0.932,-0.443 -1.455,-0.19 -0.306,0.229 -0.534,0.496 -0.392,0.871 -0.002,0.308 0.432,0.246 0.505,0.477"
       id="path62" /><path
       fill="#99c45a"
       d="m 572.063,74.931 c -0.23,-1.487 -2.247,-3.049 -3.445,-3.431 -0.294,-0.009 -0.211,0.32 -0.123,0.615 0.467,0.832 0.887,1.819 1.771,2.519 0.066,0.276 -0.158,0.353 -0.107,0.605 0.156,0.507 0.778,1.01 1.217,1.316 0.186,-0.023 0.534,0.187 0.607,-0.04 0.146,-0.296 -0.237,-0.747 -0.31,-1.167 0.181,-0.152 0.315,-0.174 0.39,-0.417"
       id="path64" /><path
       fill="#99c45a"
       d="m 567.658,80.208 c -1.095,-0.315 0.031,0.885 -0.385,1.263 -0.145,-0.092 -0.276,-0.249 -0.412,-0.167 -0.063,0.122 0.048,0.227 0.118,0.325 0.215,-0.369 0.557,0.228 0.751,0.454 0.359,0.295 0.822,0.325 1.146,0.128 0.107,-0.249 0.366,-0.493 0.203,-0.858 -0.076,-0.687 -0.95,-0.816 -1.421,-1.145"
       id="path66" /><path
       fill="#99c45a"
       d="m 556.648,80.744 0.393,-0.81 c -0.216,-1.02 -1.202,-0.92 -1.492,-0.305 0.95,0.864 -0.065,1.943 1.256,2.617 0.363,-0.114 0.553,-0.375 0.607,-0.838 -0.044,-0.429 -0.465,-0.693 -0.764,-0.664"
       id="path68" /><path
       fill="#99c45a"
       d="m 551.415,78.097 c -0.289,0.105 -0.571,0.29 -0.571,0.582 0.036,0.593 0.715,0.646 1.124,0.931 0.248,0.06 0.411,-0.158 0.511,-0.365 0,-0.885 -0.616,-0.569 -1.064,-1.148"
       id="path70" /><path
       fill="#99c45a"
       d="m 552.974,80.327 0.292,0.809 c 0.223,0.072 0.512,-0.047 0.576,-0.283 0.152,-0.625 -0.576,-0.918 -0.868,-0.526"
       id="path72" /><path
       fill="#99c45a"
       d="m 584.137,55.696 c -0.574,0.378 -1.194,0.907 -1.229,1.509 -0.228,1.158 1.017,1.688 2.058,1.793 0.647,-0.132 1.381,-0.155 1.897,-0.717 0.077,-0.635 0.281,-1.085 0.018,-1.682 -0.652,-0.899 -1.518,-1.192 -2.744,-0.903"
       id="path74" /><path
       fill="#99c45a"
       d="m 552.045,79.913 c -0.276,0.009 -0.563,0.156 -0.569,0.542 0.098,0.203 0.156,0.457 0.282,0.608 0.32,0.065 0.517,-0.224 0.668,-0.494 -0.043,-0.209 -0.097,-0.618 -0.381,-0.656"
       id="path76" /><path
       fill="#99c45a"
       d="m 574.28,52.381 c 0.28,-0.318 0.545,-0.799 0.067,-0.956 -0.466,-0.204 -1.022,0.042 -1.324,0.354 -0.195,0.293 -0.199,0.638 0.062,0.853 0.391,0.101 0.853,0.114 1.195,-0.251"
       id="path78" /><path
       fill="#99c45a"
       d="m 574.972,76.87 c -0.318,0.386 -0.062,0.882 0.214,1.296 0.243,0.049 0.572,0.249 0.807,0.109 0.158,-0.342 0.41,-0.862 -0.167,-1.264 -0.23,-0.117 -0.603,-0.252 -0.854,-0.141"
       id="path80" /><path
       fill="#99c45a"
       d="m 577.104,51.263 c 0.103,-0.102 0.239,-0.365 0.085,-0.443 -0.247,-0.24 -0.636,-0.23 -0.98,-0.017 -0.121,0.215 -0.251,0.418 -0.111,0.599 0.266,0.177 0.731,0.217 1.006,-0.139"
       id="path82" /><path
       fill="#99c45a"
       d="m 580.108,50.279 c 0.223,-0.253 0.181,-0.571 0.12,-0.811 -0.337,-0.158 -0.527,-0.475 -1.058,-0.344 -0.594,0.033 -0.872,0.576 -1.07,0.99 -0.054,0.228 0.328,0.342 0.309,0.589 0.471,0.231 1.322,0.218 1.699,-0.424"
       id="path84" /></g><g
     id="g138"><defs
       id="defs89"><path
         id="path332"
         d="m 12.035,92.938 c -1.455,0 -2.63,1.178 -2.63,2.631 0,1.454 1.175,2.634 2.63,2.634 h 167.554 c 1.451,0 2.632,-1.18 2.632,-2.634 0,-1.453 -1.181,-2.631 -2.632,-2.631 z" /></defs><clipPath
       id="clipPath384"><use
         xlink:href="#SVGID_1_"
         overflow="visible"
         id="use382"
         x="0"
         y="0"
         width="100%"
         height="100%" /></clipPath><defs
       id="defs97"><filter
         id="filter339"
         filterUnits="userSpaceOnUse"
         x="9.4049997"
         y="92.938004"
         width="172.81599"
         height="5.2649999"><feColorMatrix
           type="matrix"
           values="1 0 0 0 0  0 1 0 0 0  0 0 1 0 0  0 0 0 1 0"
           id="feColorMatrix337" /></filter></defs><mask
       maskUnits="userSpaceOnUse"
       x="9.405"
       y="92.938"
       width="172.816"
       height="5.265"
       id="mask421"><g
         filter="url(#Adobe_OpacityMaskFilter)"
         id="g419"><linearGradient
           id="linearGradient415"
           gradientUnits="userSpaceOnUse"
           x1="-0.068800002"
           y1="394.20309"
           x2="1.6152"
           y2="394.20309"
           gradientTransform="matrix(102.6416,0,0,-102.6416,16.4199,40557.129)"><stop
             offset="0"
             style="stop-color:#000000"
             id="stop391" /><stop
             offset="0.0074"
             style="stop-color:#090909"
             id="stop393" /><stop
             offset="0.0477"
             style="stop-color:#373737"
             id="stop395" /><stop
             offset="0.0931"
             style="stop-color:#626262"
             id="stop397" /><stop
             offset="0.1419"
             style="stop-color:#888888"
             id="stop399" /><stop
             offset="0.195"
             style="stop-color:#A8A8A8"
             id="stop401" /><stop
             offset="0.2537"
             style="stop-color:#C4C4C4"
             id="stop403" /><stop
             offset="0.32"
             style="stop-color:#DADADA"
             id="stop405" /><stop
             offset="0.3974"
             style="stop-color:#EBEBEB"
             id="stop407" /><stop
             offset="0.4931"
             style="stop-color:#F6F6F6"
             id="stop409" /><stop
             offset="0.6274"
             style="stop-color:#FDFDFD"
             id="stop411" /><stop
             offset="1"
             style="stop-color:#FFFFFF"
             id="stop413" /></linearGradient><rect
           x="9.4049997"
           y="92.938004"
           clip-path="url(#SVGID_2_)"
           fill="url(#SVGID_4_)"
           width="172.81599"
           height="5.2649999"
           id="rect417" /></g></mask><linearGradient
       id="linearGradient429"
       gradientUnits="userSpaceOnUse"
       x1="-0.068800002"
       y1="394.20309"
       x2="1.6152"
       y2="394.20309"
       gradientTransform="matrix(102.6416,0,0,-102.6416,16.4199,40557.129)"><stop
         offset="0"
         style="stop-color:#99C45A"
         id="stop423" /><stop
         offset="0.1413"
         style="stop-color:#99C45A"
         id="stop425" /><stop
         offset="1"
         style="stop-color:#99C45A"
         id="stop427" /></linearGradient><rect
       x="9.4049997"
       y="92.938004"
       clip-path="url(#SVGID_2_)"
       mask="url(#SVGID_3_)"
       fill="url(#SVGID_5_)"
       width="172.81599"
       height="5.2649999"
       id="rect136"
       style="fill:url(#SVGID_5_)" /></g><g
     id="g190"><defs
       id="defs141"><path
         id="path364"
         d="m 383.809,92.938 c -1.449,0 -2.628,1.178 -2.628,2.631 0,1.454 1.179,2.634 2.628,2.634 h 171.087 c 1.446,0 2.629,-1.18 2.629,-2.634 0,-1.453 -1.183,-2.631 -2.629,-2.631 z" /></defs><clipPath
       id="clipPath437"><use
         xlink:href="#SVGID_6_"
         overflow="visible"
         id="use435"
         x="0"
         y="0"
         width="100%"
         height="100%" /></clipPath><defs
       id="defs149"><filter
         id="filter371"
         filterUnits="userSpaceOnUse"
         x="381.181"
         y="92.938004"
         width="176.34399"
         height="5.2649999"><feColorMatrix
           type="matrix"
           values="1 0 0 0 0  0 1 0 0 0  0 0 1 0 0  0 0 0 1 0"
           id="feColorMatrix369" /></filter></defs><mask
       maskUnits="userSpaceOnUse"
       x="381.181"
       y="92.938"
       width="176.344"
       height="5.265"
       id="mask474"><g
         filter="url(#Adobe_OpacityMaskFilter_1_)"
         id="g472"><linearGradient
           id="linearGradient468"
           gradientUnits="userSpaceOnUse"
           x1="1.3745"
           y1="394.14749"
           x2="3.0581"
           y2="394.14749"
           gradientTransform="matrix(104.7354,0,0,-104.7354,237.2324,41376.801)"><stop
             offset="0"
             style="stop-color:#FFFFFF"
             id="stop444" /><stop
             offset="0.3726"
             style="stop-color:#FDFDFD"
             id="stop446" /><stop
             offset="0.5069"
             style="stop-color:#F6F6F6"
             id="stop448" /><stop
             offset="0.6026"
             style="stop-color:#EBEBEB"
             id="stop450" /><stop
             offset="0.68"
             style="stop-color:#DADADA"
             id="stop452" /><stop
             offset="0.7463"
             style="stop-color:#C4C4C4"
             id="stop454" /><stop
             offset="0.805"
             style="stop-color:#A8A8A8"
             id="stop456" /><stop
             offset="0.8581"
             style="stop-color:#888888"
             id="stop458" /><stop
             offset="0.9069"
             style="stop-color:#626262"
             id="stop460" /><stop
             offset="0.9523"
             style="stop-color:#373737"
             id="stop462" /><stop
             offset="0.9926"
             style="stop-color:#090909"
             id="stop464" /><stop
             offset="1"
             style="stop-color:#000000"
             id="stop466" /></linearGradient><rect
           x="381.181"
           y="92.938004"
           clip-path="url(#SVGID_7_)"
           fill="url(#SVGID_9_)"
           width="176.34399"
           height="5.2649999"
           id="rect470" /></g></mask><linearGradient
       id="linearGradient482"
       gradientUnits="userSpaceOnUse"
       x1="1.3745"
       y1="394.14749"
       x2="3.0581"
       y2="394.14749"
       gradientTransform="matrix(104.7354,0,0,-104.7354,237.2324,41376.801)"><stop
         offset="0"
         style="stop-color:#99C45A"
         id="stop476" /><stop
         offset="0.8587"
         style="stop-color:#99C45A"
         id="stop478" /><stop
         offset="1"
         style="stop-color:#99C45A"
         id="stop480" /></linearGradient><rect
       x="381.181"
       y="92.938004"
       clip-path="url(#SVGID_7_)"
       mask="url(#SVGID_8_)"
       fill="url(#SVGID_10_)"
       width="176.34399"
       height="5.2649999"
       id="rect188"
       style="fill:url(#SVGID_10_)" /></g><g
     id="g208"><path
       fill="#7faf55"
       d="m 208.961,107.242 h -5.456 l -5.612,-9.325 h -0.066 v 9.325 h -4.508 v -23.13 h 6.109 c 1.142,0 2.19,0.135 3.142,0.4 0.953,0.267 1.764,0.685 2.437,1.246 0.675,0.557 1.2,1.28 1.583,2.161 0.379,0.875 0.566,1.933 0.566,3.16 0,0.736 -0.103,1.46 -0.311,2.174 -0.202,0.717 -0.504,1.367 -0.902,1.952 -0.397,0.576 -0.89,1.08 -1.472,1.487 -0.582,0.407 -1.263,0.671 -2.042,0.792 z M 197.827,94.76 h 0.589 c 0.611,0 1.176,-0.053 1.7,-0.151 0.521,-0.107 0.97,-0.296 1.349,-0.572 0.38,-0.27 0.67,-0.639 0.874,-1.088 0.201,-0.447 0.309,-1.032 0.309,-1.747 0,-0.716 -0.111,-1.296 -0.327,-1.732 -0.214,-0.441 -0.508,-0.779 -0.889,-1.03 -0.379,-0.239 -0.823,-0.414 -1.332,-0.506 -0.514,-0.092 -1.068,-0.134 -1.662,-0.134 h -0.613 v 6.96 z"
       id="path192" /><polygon
       fill="#7faf55"
       points="226.172,84.112 238.136,84.112 238.136,88.044 230.685,88.044 230.685,93.136 237.861,93.136 237.861,97.059 230.685,97.059 230.685,103.316 238.136,103.316 238.136,107.242 226.172,107.242 "
       id="polygon194" /><path
       fill="#7faf55"
       d="m 267.217,89.206 c -0.423,-0.593 -0.922,-1.057 -1.487,-1.395 -0.559,-0.339 -1.217,-0.507 -1.975,-0.507 -0.37,0 -0.719,0.066 -1.061,0.201 -0.333,0.131 -0.634,0.309 -0.885,0.538 -0.262,0.218 -0.472,0.494 -0.633,0.825 -0.161,0.329 -0.247,0.679 -0.247,1.04 0,0.654 0.228,1.178 0.681,1.562 0.45,0.395 1.015,0.74 1.701,1.047 0.681,0.306 1.422,0.624 2.21,0.953 0.783,0.328 1.519,0.756 2.203,1.289 0.684,0.532 1.255,1.204 1.708,2.022 0.45,0.818 0.674,1.874 0.674,3.163 0,1.165 -0.181,2.227 -0.525,3.184 -0.348,0.967 -0.848,1.803 -1.502,2.506 -0.656,0.703 -1.454,1.249 -2.388,1.638 -0.943,0.392 -2.009,0.585 -3.195,0.585 -1.596,0 -2.977,-0.414 -4.155,-1.243 -1.179,-0.832 -2.166,-1.917 -2.96,-3.269 l 2.913,-2.848 c 0.143,0.443 0.351,0.874 0.631,1.286 0.273,0.411 0.598,0.77 0.966,1.068 0.361,0.307 0.76,0.552 1.194,0.743 0.43,0.182 0.887,0.272 1.382,0.272 0.451,0 0.854,-0.091 1.226,-0.272 0.369,-0.191 0.682,-0.437 0.953,-0.743 0.261,-0.299 0.465,-0.657 0.595,-1.056 0.125,-0.397 0.2,-0.819 0.2,-1.272 0,-0.592 -0.123,-1.092 -0.364,-1.503 -0.247,-0.407 -0.564,-0.753 -0.954,-1.025 -0.387,-0.276 -0.824,-0.511 -1.303,-0.69 -0.48,-0.186 -0.945,-0.372 -1.398,-0.553 -0.736,-0.307 -1.42,-0.638 -2.056,-0.994 -0.633,-0.358 -1.179,-0.785 -1.646,-1.275 -0.458,-0.489 -0.815,-1.063 -1.063,-1.72 -0.263,-0.651 -0.39,-1.431 -0.39,-2.328 0,-0.961 0.171,-1.861 0.507,-2.704 0.342,-0.838 0.815,-1.574 1.413,-2.205 0.598,-0.635 1.313,-1.135 2.13,-1.49 0.818,-0.358 1.716,-0.54 2.705,-0.54 0.507,0 1.059,0.063 1.651,0.191 0.591,0.118 1.178,0.292 1.753,0.52 0.571,0.22 1.108,0.496 1.624,0.809 0.508,0.319 0.94,0.671 1.283,1.06 z"
       id="path196" /><path
       fill="#7faf55"
       d="m 298.727,107.857 c -1.697,0 -3.253,-0.325 -4.647,-0.982 -1.404,-0.651 -2.608,-1.533 -3.604,-2.642 -1.004,-1.104 -1.786,-2.394 -2.345,-3.877 -0.57,-1.482 -0.847,-3.051 -0.847,-4.709 0,-1.614 0.276,-3.157 0.847,-4.633 0.559,-1.467 1.34,-2.76 2.345,-3.878 0.995,-1.114 2.2,-2.003 3.604,-2.653 1.394,-0.654 2.95,-0.987 4.647,-0.987 1.675,0 3.217,0.333 4.634,0.987 1.407,0.65 2.62,1.539 3.612,2.653 1.007,1.118 1.785,2.411 2.349,3.878 0.563,1.476 0.848,3.019 0.848,4.633 0,1.658 -0.284,3.227 -0.848,4.709 -0.563,1.483 -1.342,2.772 -2.349,3.877 -0.993,1.108 -2.206,1.99 -3.612,2.642 -1.418,0.657 -2.959,0.982 -4.634,0.982 m 0,-19.911 c -0.986,0 -1.892,0.22 -2.735,0.65 -0.835,0.425 -1.551,0.994 -2.143,1.701 -0.596,0.703 -1.064,1.506 -1.398,2.403 -0.335,0.898 -0.503,1.821 -0.503,2.763 0,0.878 0.172,1.782 0.521,2.716 0.349,0.931 0.822,1.782 1.421,2.565 0.605,0.772 1.322,1.41 2.149,1.914 0.83,0.5 1.723,0.745 2.688,0.745 0.961,0 1.857,-0.245 2.681,-0.745 0.826,-0.504 1.55,-1.142 2.148,-1.914 0.602,-0.783 1.077,-1.635 1.428,-2.565 0.349,-0.934 0.524,-1.838 0.524,-2.716 0,-0.941 -0.17,-1.864 -0.514,-2.763 -0.334,-0.897 -0.8,-1.7 -1.392,-2.403 -0.591,-0.707 -1.303,-1.276 -2.148,-1.701 -0.836,-0.43 -1.746,-0.65 -2.727,-0.65"
       id="path198" /><path
       fill="#7faf55"
       d="m 344.065,107.242 h -5.461 l -5.613,-9.325 h -0.06 v 9.325 h -4.509 v -23.13 h 6.099 c 1.145,0 2.195,0.135 3.146,0.4 0.951,0.267 1.764,0.685 2.441,1.246 0.669,0.557 1.194,1.28 1.578,2.161 0.38,0.875 0.565,1.933 0.565,3.16 0,0.736 -0.099,1.46 -0.307,2.174 -0.206,0.717 -0.508,1.367 -0.908,1.952 -0.395,0.576 -0.882,1.08 -1.468,1.487 -0.586,0.407 -1.266,0.671 -2.038,0.792 z M 332.932,94.76 h 0.58 c 0.612,0 1.176,-0.053 1.703,-0.151 0.52,-0.107 0.972,-0.296 1.347,-0.572 0.376,-0.27 0.675,-0.639 0.873,-1.088 0.211,-0.447 0.307,-1.032 0.307,-1.747 0,-0.716 -0.102,-1.296 -0.319,-1.732 -0.217,-0.441 -0.508,-0.779 -0.892,-1.03 -0.37,-0.239 -0.818,-0.414 -1.329,-0.506 -0.514,-0.092 -1.065,-0.134 -1.659,-0.134 h -0.61 v 6.96 z"
       id="path200" /><polygon
       fill="#7faf55"
       points="363.976,107.242 363.976,88.044 359.313,88.044 359.313,84.112 373.147,84.112 373.147,88.044 368.479,88.044 368.479,107.242 "
       id="polygon202" /><polygon
       fill="#df8844"
       points="351.974,68.294 351.974,67.863 354.885,67.863 354.885,68.294 353.685,68.294 353.685,71.797 353.17,71.797 353.17,68.294 "
       id="polygon204" /><path
       fill="#df8844"
       d="m 358.637,70.073 c -0.031,-0.549 -0.064,-1.216 -0.064,-1.7 h -0.013 c -0.142,0.453 -0.3,0.947 -0.496,1.493 l -0.698,1.907 h -0.384 l -0.638,-1.875 c -0.191,-0.558 -0.342,-1.064 -0.449,-1.525 h -0.018 c -0.008,0.49 -0.035,1.145 -0.069,1.733 l -0.109,1.69 h -0.479 l 0.271,-3.937 h 0.652 l 0.666,1.904 c 0.166,0.486 0.292,0.917 0.4,1.328 h 0.01 c 0.102,-0.401 0.246,-0.832 0.418,-1.328 l 0.699,-1.904 h 0.649 l 0.241,3.937 h -0.499 z"
       id="path206" /></g></g></svg>
